<?xml version="1.0" encoding="UTF-8"?>
<svg width="625px" height="318px" viewBox="0 0 625 318" version="1.1" xmlns="http://www.w3.org/2000/svg" xmlns:xlink="http://www.w3.org/1999/xlink">
    <!-- Generator: Sketch 41.2 (35397) - http://www.bohemiancoding.com/sketch -->
    <title>Group</title>
    <desc>Created with Sketch.</desc>
    <defs>
        <path d="M0.356510784,9.05891598 C0.356513869,7.49075722 1.64120502,6.30332537 4.25,5.751 C16.618,3.13 38.391,3.107 48.556,2.787 C53.8968065,1.55119807 65.3944264,0.641968639 80.4791031,0.343 L103.180866,0.343 C129.420013,0.812434036 160.874254,2.88691028 189.312,7.473 C251.138,17.444 245.625,34.95 245.625,34.95 C249.282085,36.49119 250.951341,37.6620907 250.95134,38.598753 L250.95134,38.5987642 C250.951315,40.2991334 245.450248,41.2275702 236.354,42.198 C217.065182,47.0366184 184.541538,50.0546228 148.022719,50.054633 L148.022399,50.054633 C123.913326,50.0546281 98.0630069,48.7392593 73.13,45.764 C34.482,41.15 -1.588,31.003 8.237,17.446 C3.02263628,14.3671998 0.35652711,11.3180142 0.356510784,9.05894238 L0.356510784,9.05892261 L0.356510784,9.05891598 Z" id="path-1"></path>
        <path d="M106.88743,119.555403 C46.6424926,119.55396 14.4051063,67.457981 0.118,3.39216455 L0.118,3.24692843 C8.79111359,1.54913012 17.3417676,0.624503462 25.6690499,0.462 L30.9651199,0.462 C89.2056766,1.61160886 135.674098,40.8669314 139.842,114.909 C128.028607,118.070678 117.061541,119.555159 106.892434,119.555403 L106.88743,119.555403 L106.88743,119.555403 Z" id="path-3"></path>
        <path d="M27.4688773,0.874999999 C65.4546106,0.878991707 88.4915059,33.6940058 100.858,74.802 C52.672,87.969 7.921,64.596 0.274,5.862 L27.455,0.875 L27.4688907,0.875 L27.4688773,0.874999999 Z" id="path-5"></path>
        <path d="M20.9382866,40.5273876 C20.9382866,40.5273764 20.9382866,40.5273653 20.9382866,40.5273541 L20.9382866,0.0479991389 L0.806242757,0.0479991389 C3.76522489,0.0480273324 6.49541005,0.918081888 8.883,2.75 C17.3422854,15.653645 20.9382921,28.3801419 20.9382866,40.5273541 L20.9382866,40.5273876 Z M0.80609137,0.0479991389 L0.80609137,0.0479991389 L0.806103112,0.0479991389 L0.80609137,0.0479991389 Z" id="path-7"></path>
        <path d="M101.235777,204.218 L106.550591,204.218 C162.361393,202.830491 207.172,157.864647 207.172,102.61 C207.172,46.48 160.932,0.98 103.893,0.98 C48.0005009,0.98 2.47246409,44.6815137 0.677,99.2614429 L0.677,105.958513 L101.235777,204.218 Z M96.872,85.86 C94.622,76.86 76.872,40.09 67.372,23.36 C65.962,20.88 63.772,13.62 66.731,12.23 C86.122,3.101 110.322,6.19 113.622,6.48 C115.782,6.67 117.232,8.02 116.622,12.23 C114.091,29.65 102.872,73.98 101.872,79.461 C101.162,83.353 100.073,89.487 98.695,89.486 L96.872,85.86 Z M103.622,86.23 C105.122,80.1 118.292,23.02 119.872,17.6 C121.772,11.09 124.403,8.11 126.742,8.29 C139.001,9.23 158.242,21.36 164.122,27.81 C167.261,31.27 166.952,35.15 163.792,38.48 C160.622,41.81 111.172,84.9 108.041,88.04 C106.628,89.459 105.182,90.523 104.247,90.523 L103.622,86.23 Z M89.292,87.98 C85.792,85.31 48.022,62.86 31.872,54.26 C24.292,50.23 25.313,44.28 26.742,41.89 C32.362,32.48 42.202,26.14 51.612,20.551 C54.382,18.9 59.122,17.65 62.292,21.15 C65.452,24.65 86.122,71.65 92.452,83.65 C95.551,89.515 95.702,91.319 94.637,91.319 L89.292,87.98 Z M107.622,91.319 C111.952,88.15 159.282,47.589 162.572,44.62 C168.122,39.6 173.202,37.44 175.742,39.36 C186.372,47.36 194.372,60.6 198.012,78.14 C198.912,82.462 197.122,85.65 194.452,85.98 C191.792,86.31 115.782,94.98 109.612,94.98 L107.622,91.319 Z M5.242,98.6 C5.572,82.06 10.372,67.48 16.362,57.98 C17.182,56.69 20.502,52.1 26.792,55.48 C31.452,57.98 83.942,87.672 88.853,90.91 C91.022,92.35 96.542,94.4 89.042,94.73 C81.542,95.06 22.032,101.98 16.362,101.98 C14.942,101.98 13.53,102.023 12.212,102.023 L5.242,98.6 Z M192.202,90.06 C195.702,89.65 202.122,91.25 202.622,94.86 C203.342,100.001 201.152,127.6 195.122,141.1 C193.622,144.462 189.792,147.48 184.622,143.65 C179.452,139.81 111.563,100.36 109.313,99.65 C107.063,98.94 107.502,96.921 111.002,96.98 L111.052,96.981 L192.202,90.06 Z M20.452,156.81 C11.381,141.6 6.122,130.6 6.122,116.31 C6.122,114.48 6.622,108.48 13.952,107.48 C21.292,106.48 78.542,99.73 87.202,98.06 C95.872,96.4 89.832,100.44 87.502,102.6 C85.162,104.77 39.622,148.98 34.452,154.15 C31.304,157.299 27.655,159.047 24.758,159.047 L20.452,156.81 Z M62.502,190.6 C50.242,186.23 38.291,179.31 31.002,166.6 C30.002,164.86 32.232,160.14 38.893,154.58 C45.563,149.011 91.032,106.551 93.032,103.011 C95.032,99.462 99.542,98.98 97.292,105.48 C94.942,112.24 77.462,177.31 75.632,185.14 C74.471,190.086 70.196,191.195 66.79,191.195 L62.502,190.6 Z M134.792,180.98 C133.952,176.98 107.353,108.011 105.622,104.501 C103.622,100.44 103.622,99.48 108.622,102.98 C113.063,106.091 179.792,143.619 184.292,147.051 C188.792,150.48 188.272,156.131 186.791,157.98 C174.492,173.341 163.872,181.9 144.292,189.65 C143.889,189.809 143.477,189.884 143.056,189.884 L134.792,180.98 Z M82.622,196.48 C79.842,195.439 78.622,191.48 80.622,184.48 C82.622,177.48 99.393,109.15 100.063,105.48 C100.723,101.81 101.792,103.31 103.622,108.15 C105.452,112.98 131.122,182.65 133.292,188.65 C135.452,194.65 129.604,196.52 127.452,197.25 C121.858,199.145 114.463,200.711 106.043,200.711 L82.622,196.48 Z" id="path-9"></path>
        <text id="text-11" font-family="BeyondTheMountains, Beyond The Mountains" font-size="110" font-weight="normal" letter-spacing="6.18750048" fill-opacity="0.903306159" fill="#573517">
            <tspan x="53.0626649" y="118.128372">Whole Foods </tspan>
        </text>
        <filter x="-50%" y="-50%" width="200%" height="200%" filterUnits="objectBoundingBox" id="filter-12">
            <feOffset dx="2" dy="2" in="SourceAlpha" result="shadowOffsetOuter1"></feOffset>
            <feGaussianBlur stdDeviation="1" in="shadowOffsetOuter1" result="shadowBlurOuter1"></feGaussianBlur>
            <feColorMatrix values="0 0 0 0 0   0 0 0 0 0   0 0 0 0 0  0 0 0 0.574190444 0" type="matrix" in="shadowBlurOuter1"></feColorMatrix>
        </filter>
        <filter x="-50%" y="-50%" width="200%" height="200%" filterUnits="objectBoundingBox" id="filter-13">
            <feGaussianBlur stdDeviation="1" in="SourceAlpha" result="shadowBlurInner1"></feGaussianBlur>
            <feOffset dx="0" dy="2" in="shadowBlurInner1" result="shadowOffsetInner1"></feOffset>
            <feComposite in="shadowOffsetInner1" in2="SourceAlpha" operator="arithmetic" k2="-1" k3="1" result="shadowInnerInner1"></feComposite>
            <feColorMatrix values="0 0 0 0 0   0 0 0 0 0   0 0 0 0 0  0 0 0 0.5 0" type="matrix" in="shadowInnerInner1"></feColorMatrix>
        </filter>
        <filter x="-50%" y="-50%" width="200%" height="200%" filterUnits="objectBoundingBox" id="filter-14">
            <feGaussianBlur stdDeviation="1" in="SourceAlpha" result="shadowBlurInner1"></feGaussianBlur>
            <feOffset dx="0" dy="2" in="shadowBlurInner1" result="shadowOffsetInner1"></feOffset>
            <feComposite in="shadowOffsetInner1" in2="SourceAlpha" operator="arithmetic" k2="-1" k3="1" result="shadowInnerInner1"></feComposite>
            <feColorMatrix values="0 0 0 0 0   0 0 0 0 0   0 0 0 0 0  0 0 0 0.5 0" type="matrix" in="shadowInnerInner1"></feColorMatrix>
        </filter>
        <text id="text-15" font-family="BeyondTheMountains, Beyond The Mountains" font-size="80" font-weight="normal" letter-spacing="4.50000048" fill-opacity="0.903306159" fill="#573517">
            <tspan x="137" y="211">for my soul</tspan>
        </text>
        <filter x="-50%" y="-50%" width="200%" height="200%" filterUnits="objectBoundingBox" id="filter-16">
            <feOffset dx="2" dy="2" in="SourceAlpha" result="shadowOffsetOuter1"></feOffset>
            <feGaussianBlur stdDeviation="1" in="shadowOffsetOuter1" result="shadowBlurOuter1"></feGaussianBlur>
            <feColorMatrix values="0 0 0 0 0   0 0 0 0 0   0 0 0 0 0  0 0 0 0.5 0" type="matrix" in="shadowBlurOuter1"></feColorMatrix>
        </filter>
        <filter x="-50%" y="-50%" width="200%" height="200%" filterUnits="objectBoundingBox" id="filter-17">
            <feGaussianBlur stdDeviation="1.5" in="SourceAlpha" result="shadowBlurInner1"></feGaussianBlur>
            <feOffset dx="0" dy="1" in="shadowBlurInner1" result="shadowOffsetInner1"></feOffset>
            <feComposite in="shadowOffsetInner1" in2="SourceAlpha" operator="arithmetic" k2="-1" k3="1" result="shadowInnerInner1"></feComposite>
            <feColorMatrix values="0 0 0 0 0   0 0 0 0 0   0 0 0 0 0  0 0 0 0.5 0" type="matrix" in="shadowInnerInner1"></feColorMatrix>
        </filter>
        <filter x="-50%" y="-50%" width="200%" height="200%" filterUnits="objectBoundingBox" id="filter-18">
            <feGaussianBlur stdDeviation="1.5" in="SourceAlpha" result="shadowBlurInner1"></feGaussianBlur>
            <feOffset dx="0" dy="1" in="shadowBlurInner1" result="shadowOffsetInner1"></feOffset>
            <feComposite in="shadowOffsetInner1" in2="SourceAlpha" operator="arithmetic" k2="-1" k3="1" result="shadowInnerInner1"></feComposite>
            <feColorMatrix values="0 0 0 0 0   0 0 0 0 0   0 0 0 0 0  0 0 0 0.5 0" type="matrix" in="shadowInnerInner1"></feColorMatrix>
        </filter>
    </defs>
    <g id="Page-1" stroke="none" stroke-width="1" fill="none" fill-rule="evenodd">
        <g id="Group">
            <g id="Group-58" transform="translate(19.000000, 163.000000)">
                <mask id="mask-2" fill="white">
                    <use xlink:href="#path-1"></use>
                </mask>
                <g id="Clip-57"></g>
                <path d="M48.556,2.787 C38.391,3.107 16.618,3.13 4.25,5.751 C-2.117,7.099 -0.597,12.23 8.237,17.446 C-1.588,31.003 34.482,41.15 73.13,45.764 C135.83,53.246 204.331,50.231 236.354,42.198 C250.461,40.693 255.921,39.289 245.625,34.95 C245.625,34.95 251.138,17.444 189.312,7.473 C156.528,2.186 119.735,0.237 91.545,0.237 C71.071,0.237 55.138,1.264 48.556,2.787" id="Fill-56" mask="url(#mask-2)"></path>
            </g>
            <path d="M0.088,17.253 C71.998,3.164 134.959,42.161 139.842,128.909 C65.358,160.487 7.38,94.516 0.088,17.253" id="Fill-59" fill="#5D8E3F"></path>
            <g id="Group-62" transform="translate(12.000000, 14.000000)">
                <mask id="mask-4" fill="white">
                    <use xlink:href="#path-3"></use>
                </mask>
                <g id="Clip-61"></g>
                <path d="M0.087,3.253 C16.766,78.201 57.988,136.816 139.842,114.909 C135.611,39.746 87.789,0.431 28.312,0.436 C19.145,0.437 9.691,1.371 0.087,3.253" id="Fill-60" mask="url(#mask-4)"></path>
            </g>
            <path d="M6.204,23.402 C6.204,23.402 8.057,25.154 11.227,28.284 C12.761,29.907 14.811,31.668 17.148,33.679 C18.31,34.69 19.545,35.764 20.848,36.895 C22.204,37.975 23.628,39.11 25.115,40.294 C28.039,42.713 31.354,45.153 34.848,47.75 C38.286,50.41 42.15,52.916 45.98,55.72 C53.83,61.087 62.223,66.78 70.722,72.38 C79.146,78.073 87.627,83.733 95.328,89.43 C97.248,90.861 99.182,92.2 100.992,93.632 C102.802,95.063 104.572,96.463 106.295,97.826 C109.753,100.537 112.831,103.36 115.717,105.885 C118.453,108.595 121.062,110.955 123.101,113.332 C125.121,115.722 127.01,117.674 128.322,119.493 C130.925,123.147 132.347,125.243 132.347,125.243 C132.347,125.243 130.625,123.34 127.728,119.994 C126.282,118.319 124.228,116.544 122.048,114.379 C120.975,113.278 119.678,112.258 118.354,111.146 C117.041,110.025 115.659,108.848 114.216,107.618 C112.738,106.433 111.146,105.253 109.53,104.002 C107.907,102.762 106.271,101.428 104.478,100.188 C100.954,97.635 97.224,94.972 93.292,92.298 C89.416,89.554 85.251,86.925 81.14,84.091 C76.971,81.321 72.736,78.509 68.501,75.694 C64.291,72.828 60.081,69.963 55.938,67.141 C51.787,64.326 47.821,61.361 43.936,58.569 C40.127,55.663 36.389,52.941 33.03,50.096 C31.332,48.7 29.684,47.342 28.088,46.027 C26.51,44.695 25.062,43.305 23.634,42.029 C22.219,40.735 20.862,39.494 19.573,38.319 C18.353,37.054 17.199,35.858 16.111,34.734 C13.934,32.493 12.043,30.555 10.66,28.805 C7.798,25.389 6.204,23.402 6.204,23.402" id="Fill-63" fill="#5D8E3F"></path>
            <path d="M12.559,152.192 C39.165,109.916 87.942,96.887 133.283,134.999 C114.151,186.724 54.315,184.677 12.559,152.192" id="Fill-64" fill="#5D8E3F"></path>
            <path d="M13.559,152.192 C40.165,109.916 88.942,96.887 134.283,134.999 C106.908,185.863 58.552,178.934 13.559,152.192" id="Fill-65" fill="#39592E"></path>
            <path d="M19.467,152.028 C19.467,152.028 21.202,151.928 24.239,151.816 C25.76,151.814 27.593,151.619 29.683,151.399 C30.726,151.296 31.838,151.184 33.007,151.066 C34.178,150.897 35.406,150.72 36.689,150.536 C39.255,150.215 42.015,149.71 44.938,149.189 C47.864,148.726 50.914,147.978 54.095,147.388 C60.426,145.999 67.174,144.494 73.925,142.891 C80.688,141.371 87.459,139.806 93.886,138.645 C95.493,138.361 97.062,138.028 98.618,137.798 C100.174,137.568 101.696,137.344 103.178,137.125 C106.14,136.676 108.979,136.468 111.58,136.215 C114.204,136.123 116.594,135.93 118.728,136.029 C120.857,136.143 122.708,136.118 124.225,136.317 C127.255,136.732 128.959,137.005 128.959,137.005 C128.959,137.005 127.211,136.972 124.196,136.846 C122.689,136.781 120.848,136.97 118.755,137.041 C117.708,137.059 116.594,137.226 115.424,137.364 C114.254,137.492 113.025,137.628 111.74,137.769 C110.461,137.949 109.131,138.187 107.755,138.406 C106.381,138.632 104.954,138.819 103.501,139.131 C100.587,139.686 97.523,140.294 94.357,140.996 C91.184,141.638 87.934,142.476 84.605,143.193 C81.283,143.969 77.907,144.756 74.533,145.544 C71.145,146.293 67.754,147.043 64.419,147.781 C61.08,148.526 57.755,149.11 54.554,149.733 C51.332,150.265 48.234,150.849 45.252,151.189 C43.766,151.378 42.322,151.56 40.924,151.738 C39.524,151.9 38.159,151.97 36.858,152.082 C35.555,152.18 34.305,152.274 33.118,152.364 C31.921,152.379 30.787,152.392 29.721,152.408 C27.592,152.441 25.747,152.473 24.23,152.343 C21.199,152.167 19.467,152.028 19.467,152.028" id="Fill-66" fill="#5D8E3F"></path>
            <path d="M565.857,277.802 C517.672,290.969 472.92,267.596 465.273,208.862 C514.338,183.678 557.047,225.637 565.857,277.802" id="Fill-67" fill="#5D8E3F"></path>
            <g id="Group-70" transform="translate(460.000000, 203.000000)">
                <mask id="mask-6" fill="white">
                    <use xlink:href="#path-5"></use>
                </mask>
                <g id="Clip-69"></g>
                <path d="M0.274,5.862 C7.921,64.596 52.672,87.969 100.858,74.802 C88.49,33.689 65.449,0.871 27.455,0.875 C19.129,0.875 10.08,2.451 0.274,5.862" id="Fill-68" mask="url(#mask-6)"></path>
            </g>
            <path d="M257.928,200.029 C191.553,209.772 131.642,175.902 123.872,154.972 C115.326,149.187 95.874,139.344 89.32,123.72 C85.944,115.676 96.141,96.625 113.033,80.521 C127.588,23.979 177.368,1.928 219.889,0.69 C296.745,-1.548 345.018,42.305 359.842,87.554 C369.879,99.663 372.347,107.512 355.659,119.584 C355.659,119.584 330.44,189.387 257.928,200.029 Z" id="Fill-72" fill="#F5D830"></path>
            <path d="M359.959,90.717 C353.387,95.075 350.966,112.797 355.128,117.428 C364.256,111.899 369.723,101.577 359.959,90.717" id="Fill-73" fill="#ADC143"></path>
            <path d="M97.787,107.784 C121.095,91.541 119.41,127.927 118.577,145.427 C126.834,130.433 123.085,88.853 118.223,87.285 C117.944,87.195 117.645,87.151 117.327,87.151 C112.082,87.152 101.75,98.875 97.787,107.784" id="Fill-74"></path>
            <path d="M123.254,71.827 C120.513,78.286 134.546,98.825 142.21,100.642 C151.211,53.017 180.279,13.852 219.064,11.179 C215.479,10.658 211.956,10.41 208.498,10.41 C165.896,10.41 133.414,47.876 123.254,71.827" id="Fill-76"></path>
            <path d="M249.142,73.21 C219.501,74.297 195.853,85.57 196.324,98.389 C196.794,111.204 221.204,120.717 250.845,119.629 C280.486,118.54 304.134,107.269 303.663,94.451 C303.218,82.303 281.266,73.125 253.738,73.125 C252.223,73.125 250.689,73.153 249.142,73.21" id="Fill-78"></path>
            <path d="M300.705,44.309 C299.184,47.727 295.181,49.267 291.763,47.746 C288.344,46.226 286.805,42.222 288.325,38.804 C289.846,35.385 293.85,33.846 297.268,35.367 C300.686,36.887 302.226,40.891 300.705,44.309" id="Fill-80" fill="#FFFFFF"></path>
            <path d="M262.785,26.714 C262.079,28.301 260.221,29.015 258.635,28.31 C257.047,27.604 256.333,25.745 257.038,24.158 C257.744,22.571 259.604,21.857 261.189,22.563 C262.775,23.268 263.491,25.127 262.785,26.714" id="Fill-81" fill="#FFFFFF"></path>
            <path d="M232.475,30.412 C230.303,35.297 224.583,37.494 219.701,35.323 C214.816,33.15 212.619,27.431 214.79,22.548 C216.961,17.664 222.682,15.467 227.564,17.639 C232.449,19.809 234.646,25.53 232.475,30.412" id="Fill-82" fill="#FFFFFF"></path>
            <path d="M294.097,95.112 C293.011,97.553 290.15,98.652 287.709,97.567 C285.267,96.481 284.168,93.621 285.254,91.178 C286.34,88.737 289.199,87.638 291.642,88.724 C294.083,89.81 295.183,92.67 294.097,95.112" id="Fill-83" fill="#FFFFFF"></path>
            <path d="M93.715,121.935 C93.948,124.882 92.553,127.397 90.6,127.552 C88.647,127.705 86.874,125.441 86.642,122.494 C86.408,119.547 87.802,117.031 89.756,116.877 C91.71,116.723 93.482,118.987 93.715,121.935" id="Fill-84" fill="#0A0A08"></path>
            <path d="M347.315,61.46 C328.493,70.709 281.227,117.776 287.739,188.466 C307.777,179.547 323.028,161.886 323.028,161.886 C323.028,161.886 307.138,121.936 347.315,61.46" id="Fill-85" fill="#B19E36"></path>
            <path d="M394.047,160.241 C399.775,272.471 277.078,302.186 199.28,287.541 C242.382,162.948 376.079,116.183 394.047,160.241" id="Fill-86" fill="#79A357"></path>
            <path d="M199.28,287.54 C276.948,298.603 398.871,267.415 393.141,155.185 C388.893,144.765 378.222,139.709 363.832,139.709 C317.38,139.711 232.188,192.417 199.28,287.54" id="Fill-87"></path>
            <path d="M380.832,159.417 C380.832,159.417 378.367,161.512 374.056,165.177 C369.753,168.846 363.634,174.117 356.202,180.331 C352.493,183.447 348.479,186.829 344.177,190.333 C339.887,193.852 335.384,197.596 330.642,201.357 C325.902,205.126 321.062,209.093 316.028,212.979 C311.003,216.874 305.896,220.831 300.787,224.788 C295.613,228.659 290.438,232.529 285.343,236.34 C280.261,240.166 275.117,243.746 270.187,247.279 C265.261,250.815 260.399,254.099 255.785,257.209 C251.172,260.322 246.75,263.178 242.618,265.743 C238.5,268.332 234.667,270.615 231.2,272.535 C227.768,274.502 224.665,276.048 222.083,277.255 C219.503,278.475 217.363,279.203 215.895,279.623 C215.167,279.85 214.558,279.864 214.18,279.946 C213.793,280.007 213.594,280.037 213.594,280.037 C213.594,280.037 213.788,279.975 214.164,279.855 C214.529,279.711 215.099,279.613 215.774,279.277 C217.149,278.657 219.066,277.572 221.443,276.077 C223.815,274.567 226.629,272.636 229.819,270.359 C233.019,268.094 236.555,265.427 240.434,262.554 C244.28,259.633 248.449,256.47 252.857,253.123 C257.248,249.748 261.879,246.189 266.668,242.506 C276.254,235.143 286.483,227.289 296.711,219.434 C301.856,215.545 307.005,211.656 312.071,207.828 C317.115,203.968 322.185,200.303 327.027,196.675 C331.867,193.042 336.623,189.63 341.116,186.369 C345.596,183.092 349.889,180.066 353.856,177.279 C361.775,171.689 368.498,167.181 373.26,164.108 C378.027,161.032 380.832,159.417 380.832,159.417" id="Fill-89" fill="#29592E"></path>
            <g id="Group-92" transform="translate(368.000000, 199.000000)">
                <mask id="mask-8" fill="white">
                    <use xlink:href="#path-7"></use>
                </mask>
                <g id="Clip-91"></g>
                <path d="M-49.989,127 C-7.45,109.622 44.971,57.798 8.883,2.75 C6.494,0.917 3.762,0.047 0.801,0.048 C-23.641,0.054 -63.418,59.441 -49.989,127" id="Fill-90" mask="url(#mask-8)"></path>
            </g>
            <path d="M341.911,207.528 C341.911,207.528 341.285,209.316 340.188,212.444 C339.098,215.572 337.563,220.048 335.645,225.387 C334.69,228.059 333.661,230.956 332.521,234.001 C331.394,237.05 330.223,240.272 328.938,243.577 C327.657,246.884 326.383,250.321 324.986,253.773 C323.598,257.229 322.187,260.741 320.774,264.252 C319.303,267.74 317.83,271.227 316.381,274.66 C314.943,278.097 313.401,281.43 311.953,284.675 C310.509,287.918 309.022,291.016 307.609,293.953 C306.198,296.891 304.807,299.642 303.475,302.162 C302.16,304.688 300.897,306.976 299.711,308.972 C298.557,310.982 297.446,312.681 296.498,314.055 C295.554,315.435 294.688,316.436 294.069,317.082 C293.77,317.413 293.464,317.599 293.297,317.753 C293.12,317.898 293.028,317.972 293.028,317.972 C293.028,317.972 293.108,317.884 293.263,317.711 C293.405,317.53 293.664,317.313 293.907,316.943 C294.418,316.223 295.066,315.107 295.827,313.649 C296.579,312.183 297.43,310.375 298.37,308.28 C299.317,306.189 300.317,303.796 301.427,301.195 C302.509,298.581 303.681,295.749 304.92,292.753 C306.141,289.749 307.431,286.579 308.763,283.301 C311.434,276.743 314.282,269.747 317.129,262.752 C318.581,259.263 320.034,255.773 321.463,252.34 C322.871,248.897 324.35,245.545 325.727,242.278 C327.099,239.011 328.494,235.878 329.802,232.9 C331.097,229.919 332.373,227.12 333.555,224.537 C335.905,219.369 337.972,215.102 339.47,212.139 C340.971,209.175 341.911,207.528 341.911,207.528" id="Fill-93" fill="#29592E"></path>
            <path d="M527.622,142.48 C527.622,206.546 475.688,258.48 411.622,258.48 C347.557,258.48 295.622,206.546 295.622,142.48 C295.622,78.416 347.557,26.48 411.622,26.48 C475.688,26.48 527.622,78.416 527.622,142.48" id="Fill-94" fill="#FFFFFF"></path>
            <path d="M411.622,34.48 C352.071,34.48 303.622,82.928 303.622,142.48 C303.622,202.032 352.071,250.48 411.622,250.48 C471.174,250.48 519.622,202.032 519.622,142.48 C519.622,82.928 471.174,34.48 411.622,34.48 M411.622,266.48 C343.248,266.48 287.622,210.854 287.622,142.48 C287.622,74.106 343.248,18.48 411.622,18.48 C479.996,18.48 535.622,74.106 535.622,142.48 C535.622,210.854 479.996,266.48 411.622,266.48" id="Fill-95" fill="#F5D830"></path>
            <path d="M400.452,123.65 C406.792,135.65 400.792,130.65 397.292,127.98 C393.792,125.31 356.022,102.86 339.872,94.259 C332.292,90.23 333.313,84.28 334.742,81.89 C340.362,72.48 350.202,66.14 359.612,60.55 C362.382,58.9 367.122,57.65 370.292,61.15 C373.452,64.65 394.122,111.65 400.452,123.65" id="Fill-96" fill="#F4EA2A"></path>
            <path d="M421.622,46.48 C423.782,46.67 425.232,48.02 424.622,52.23 C422.092,69.65 410.872,113.98 409.872,119.46 C408.872,124.94 407.122,134.86 404.872,125.86 C402.622,116.86 384.872,80.089 375.372,63.36 C373.962,60.88 371.772,53.62 374.732,52.23 C394.122,43.1 418.322,46.19 421.622,46.48" id="Fill-97" fill="#F4EA2A"></path>
            <path d="M472.122,67.81 C475.262,71.27 474.952,75.15 471.792,78.48 C468.622,81.81 419.172,124.9 416.042,128.039 C413.152,130.94 410.122,132.36 411.622,126.23 C413.122,120.1 426.292,63.02 427.872,57.6 C429.772,51.09 432.402,48.11 434.742,48.29 C447.002,49.23 466.242,61.36 472.122,67.81" id="Fill-98" fill="#F4EA2A"></path>
            <path d="M506.012,118.14 C506.912,122.461 505.122,125.65 502.452,125.98 C499.792,126.31 423.783,134.98 417.612,134.98 C411.452,134.98 411.292,134.48 415.622,131.32 C419.952,128.15 467.283,87.59 470.572,84.62 C476.122,79.6 481.202,77.44 483.742,79.361 C494.372,87.361 502.372,100.6 506.012,118.14" id="Fill-99" fill="#F4EA2A"></path>
            <path d="M510.622,134.86 C511.342,140 509.152,167.6 503.122,181.1 C501.622,184.461 497.792,187.48 492.622,183.65 C487.452,179.81 419.563,140.36 417.313,139.65 C415.063,138.94 415.502,136.921 419.002,136.98 C422.502,137.04 498.202,130.301 500.202,130.06 C503.702,129.65 510.122,131.25 510.622,134.86" id="Fill-100" fill="#F4EA2A"></path>
            <path d="M492.292,187.051 C496.792,190.48 496.271,196.131 494.792,197.98 C482.492,213.341 471.872,221.9 452.292,229.65 C448.472,231.16 443.622,224.98 442.792,220.98 C441.952,216.98 415.353,148.011 413.622,144.5 C411.622,140.44 411.622,139.48 416.622,142.98 C421.063,146.091 487.792,183.62 492.292,187.051" id="Fill-101" fill="#F4EA2A"></path>
            <path d="M441.292,228.65 C443.452,234.65 437.603,236.52 435.452,237.25 C425.063,240.77 408.452,243.15 390.622,236.48 C387.842,235.44 386.622,231.48 388.622,224.48 C390.622,217.48 407.393,149.15 408.063,145.48 C408.723,141.81 409.792,143.31 411.622,148.15 C413.452,152.98 439.122,222.65 441.292,228.65" id="Fill-102" fill="#F4EA2A"></path>
            <path d="M401.032,143.011 C403.032,139.461 407.542,138.98 405.292,145.48 C402.942,152.239 385.462,217.31 383.632,225.14 C381.792,232.98 372.122,231.18 370.502,230.6 C358.242,226.23 346.292,219.31 339.002,206.6 C338.002,204.86 340.232,200.14 346.893,194.58 C353.563,189.011 399.032,146.551 401.032,143.011" id="Fill-103" fill="#F4EA2A"></path>
            <path d="M395.202,138.06 C403.872,136.4 397.832,140.44 395.502,142.6 C393.162,144.77 347.622,188.98 342.452,194.15 C337.292,199.31 330.782,200.711 328.452,196.81 C319.382,181.6 314.122,170.6 314.122,156.31 C314.122,154.48 314.622,148.48 321.952,147.48 C329.292,146.48 386.542,139.73 395.202,138.06" id="Fill-104" fill="#F4EA2A"></path>
            <path d="M396.852,130.91 C399.022,132.35 404.542,134.4 397.042,134.73 C389.542,135.06 330.032,141.98 324.362,141.98 C318.702,141.98 313.162,142.66 313.242,138.6 C313.572,122.06 318.372,107.48 324.362,97.98 C325.182,96.69 328.502,92.1 334.792,95.48 C339.452,97.98 391.942,127.671 396.852,130.91" id="Fill-105" fill="#F4EA2A"></path>
            <g id="Group-108" transform="translate(308.000000, 40.000000)">
                <mask id="mask-10" fill="white">
                    <use xlink:href="#path-9"></use>
                </mask>
                <g id="Clip-107"></g>
                <path d="M0.622,102.61 C0.622,158.739 46.862,204.251 103.893,204.251 C160.932,204.251 207.172,158.739 207.172,102.61 C207.172,46.48 160.932,0.98 103.893,0.98 C46.862,0.98 0.622,46.48 0.622,102.61 M96.872,85.86 C94.622,76.86 76.872,40.09 67.372,23.36 C65.962,20.88 63.772,13.62 66.731,12.23 C86.122,3.101 110.322,6.19 113.622,6.48 C115.782,6.67 117.232,8.02 116.622,12.23 C114.091,29.65 102.872,73.98 101.872,79.461 C101.162,83.353 100.073,89.487 98.695,89.486 C98.133,89.486 97.523,88.468 96.872,85.86 M103.622,86.23 C105.122,80.1 118.292,23.02 119.872,17.6 C121.772,11.09 124.403,8.11 126.742,8.29 C139.001,9.23 158.242,21.36 164.122,27.81 C167.261,31.27 166.952,35.15 163.792,38.48 C160.622,41.81 111.172,84.9 108.041,88.04 C106.628,89.459 105.182,90.523 104.247,90.523 C103.272,90.523 102.856,89.361 103.622,86.23 M89.292,87.98 C85.792,85.31 48.022,62.86 31.872,54.26 C24.292,50.23 25.313,44.28 26.742,41.89 C32.362,32.48 42.202,26.14 51.612,20.551 C54.382,18.9 59.122,17.65 62.292,21.15 C65.452,24.65 86.122,71.65 92.452,83.65 C95.551,89.515 95.702,91.319 94.637,91.319 C93.524,91.319 91.081,89.346 89.292,87.98 M107.622,91.319 C111.952,88.15 159.282,47.589 162.572,44.62 C168.122,39.6 173.202,37.44 175.742,39.36 C186.372,47.36 194.372,60.6 198.012,78.14 C198.912,82.462 197.122,85.65 194.452,85.98 C191.792,86.31 115.782,94.98 109.612,94.98 C103.452,94.98 103.292,94.48 107.622,91.319 M5.242,98.6 C5.572,82.06 10.372,67.48 16.362,57.98 C17.182,56.69 20.502,52.1 26.792,55.48 C31.452,57.98 83.942,87.672 88.853,90.91 C91.022,92.35 96.542,94.4 89.042,94.73 C81.542,95.06 22.032,101.98 16.362,101.98 C14.942,101.98 13.53,102.023 12.212,102.023 C8.276,102.023 5.182,101.641 5.242,98.6 M192.202,90.06 C195.702,89.65 202.122,91.25 202.622,94.86 C203.342,100.001 201.152,127.6 195.122,141.1 C193.622,144.462 189.792,147.48 184.622,143.65 C179.452,139.81 111.563,100.36 109.313,99.65 C107.063,98.94 107.502,96.921 111.002,96.98 L111.052,96.981 C115.166,96.981 190.21,90.301 192.202,90.06 M20.452,156.81 C11.381,141.6 6.122,130.6 6.122,116.31 C6.122,114.48 6.622,108.48 13.952,107.48 C21.292,106.48 78.542,99.73 87.202,98.06 C95.872,96.4 89.832,100.44 87.502,102.6 C85.162,104.77 39.622,148.98 34.452,154.15 C31.304,157.299 27.655,159.047 24.758,159.047 C22.905,159.047 21.36,158.331 20.452,156.81 M62.502,190.6 C50.242,186.23 38.291,179.31 31.002,166.6 C30.002,164.86 32.232,160.14 38.893,154.58 C45.563,149.011 91.032,106.551 93.032,103.011 C95.032,99.462 99.542,98.98 97.292,105.48 C94.942,112.24 77.462,177.31 75.632,185.14 C74.471,190.086 70.196,191.195 66.79,191.195 C64.796,191.195 63.1,190.814 62.502,190.6 M134.792,180.98 C133.952,176.98 107.353,108.011 105.622,104.501 C103.622,100.44 103.622,99.48 108.622,102.98 C113.063,106.091 179.792,143.619 184.292,147.051 C188.792,150.48 188.272,156.131 186.791,157.98 C174.492,173.341 163.872,181.9 144.292,189.65 C143.889,189.809 143.477,189.884 143.056,189.884 C139.495,189.883 135.535,184.558 134.792,180.98 M82.622,196.48 C79.842,195.439 78.622,191.48 80.622,184.48 C82.622,177.48 99.393,109.15 100.063,105.48 C100.723,101.81 101.792,103.31 103.622,108.15 C105.452,112.98 131.122,182.65 133.292,188.65 C135.452,194.65 129.604,196.52 127.452,197.25 C121.858,199.145 114.463,200.711 106.043,200.711 C98.825,200.71 90.853,199.559 82.622,196.48" id="Fill-106" mask="url(#mask-10)"></path>
            </g>
            <path d="M414.897,73.246 C414.897,74.902 413.554,76.246 411.896,76.246 C410.24,76.246 408.896,74.902 408.896,73.246 C408.896,71.589 410.24,70.245 411.896,70.245 C413.554,70.245 414.897,71.589 414.897,73.246" id="Fill-109" fill="#FFFFFF"></path>
            <path d="M390.801,67.147 C390.801,68.251 389.905,69.147 388.801,69.147 C387.695,69.147 386.801,68.251 386.801,67.147 C386.801,66.042 387.695,65.147 388.801,65.147 C389.905,65.147 390.801,66.042 390.801,67.147" id="Fill-110" fill="#FFFFFF"></path>
            <path d="M399.591,85.314 C399.591,86.585 398.56,87.616 397.289,87.616 C396.017,87.616 394.986,86.585 394.986,85.314 C394.986,84.043 396.017,83.011 397.289,83.011 C398.56,83.011 399.591,84.043 399.591,85.314" id="Fill-111" fill="#FFFFFF"></path>
            <path d="M407.122,102.314 C407.122,102.985 406.578,103.529 405.906,103.529 C405.234,103.529 404.69,102.985 404.69,102.314 C404.69,101.642 405.234,101.097 405.906,101.097 C406.578,101.097 407.122,101.642 407.122,102.314" id="Fill-112" fill="#FFFFFF"></path>
            <path d="M385.634,56.44 C385.634,57.111 385.09,57.656 384.418,57.656 C383.746,57.656 383.202,57.111 383.202,56.44 C383.202,55.769 383.746,55.224 384.418,55.224 C385.09,55.224 385.634,55.769 385.634,56.44" id="Fill-113" fill="#FFFFFF"></path>
            <path d="M402.066,72.029 C402.066,72.701 401.521,73.246 400.85,73.246 C400.178,73.246 399.634,72.701 399.634,72.029 C399.634,71.358 400.178,70.813 400.85,70.813 C401.521,70.813 402.066,71.358 402.066,72.029" id="Fill-114" fill="#FFFFFF"></path>
            <path d="M416.789,56.147 C416.789,57.302 415.853,58.238 414.698,58.238 C413.543,58.238 412.607,57.302 412.607,56.147 C412.607,54.992 413.543,54.055 414.698,54.055 C415.853,54.055 416.789,54.992 416.789,56.147" id="Fill-115" fill="#FFFFFF"></path>
            <path d="M403.234,54.056 C403.234,55.372 402.167,56.44 400.85,56.44 C399.533,56.44 398.466,55.372 398.466,54.056 C398.466,52.74 399.533,51.672 400.85,51.672 C402.167,51.672 403.234,52.74 403.234,54.056" id="Fill-116" fill="#FFFFFF"></path>
            <path d="M373.787,82.298 C374.832,83.583 374.637,85.472 373.351,86.517 C372.065,87.564 370.176,87.368 369.131,86.083 C368.086,84.797 368.28,82.908 369.565,81.863 C370.852,80.818 372.741,81.012 373.787,82.298" id="Fill-117" fill="#FFFFFF"></path>
            <path d="M351.242,92.765 C351.939,93.622 351.809,94.883 350.951,95.579 C350.094,96.277 348.835,96.146 348.139,95.288 C347.441,94.431 347.571,93.173 348.428,92.475 C349.285,91.78 350.545,91.909 351.242,92.765" id="Fill-118" fill="#FFFFFF"></path>
            <path d="M369.522,101.317 C370.324,102.304 370.175,103.754 369.188,104.556 C368.201,105.357 366.752,105.209 365.949,104.222 C365.147,103.236 365.298,101.785 366.283,100.983 C367.271,100.181 368.721,100.331 369.522,101.317" id="Fill-119" fill="#FFFFFF"></path>
            <path d="M386.09,109.758 C386.513,110.278 386.435,111.045 385.914,111.469 C385.392,111.892 384.626,111.812 384.203,111.291 C383.78,110.771 383.858,110.006 384.38,109.582 C384.9,109.158 385.667,109.237 386.09,109.758" id="Fill-120" fill="#FFFFFF"></path>
            <path d="M340.479,87.717 C340.902,88.238 340.823,89.004 340.303,89.428 C339.78,89.852 339.016,89.773 338.592,89.252 C338.168,88.731 338.247,87.965 338.769,87.541 C339.289,87.117 340.056,87.196 340.479,87.717" id="Fill-121" fill="#FFFFFF"></path>
            <path d="M363.063,89.449 C363.487,89.969 363.408,90.735 362.887,91.158 C362.365,91.582 361.6,91.504 361.176,90.982 C360.752,90.462 360.832,89.695 361.354,89.271 C361.874,88.848 362.64,88.928 363.063,89.449" id="Fill-122" fill="#FFFFFF"></path>
            <path d="M364.469,67.837 C365.197,68.733 365.061,70.05 364.165,70.778 C363.27,71.507 361.952,71.371 361.224,70.475 C360.495,69.579 360.631,68.263 361.527,67.534 C362.423,66.805 363.739,66.941 364.469,67.837" id="Fill-123" fill="#FFFFFF"></path>
            <path d="M352.631,74.765 C353.462,75.786 353.308,77.288 352.285,78.119 C351.264,78.95 349.763,78.794 348.932,77.773 C348.102,76.751 348.256,75.249 349.277,74.419 C350.299,73.589 351.802,73.744 352.631,74.765" id="Fill-124" fill="#FFFFFF"></path>
            <path d="M360.549,189.183 C361.438,187.788 363.294,187.376 364.69,188.265 C366.089,189.155 366.5,191.01 365.61,192.408 C364.719,193.805 362.865,194.217 361.469,193.325 C360.069,192.436 359.658,190.581 360.549,189.183" id="Fill-125" fill="#FFFFFF"></path>
            <path d="M377.596,207.274 C378.189,206.343 379.425,206.068 380.357,206.661 C381.289,207.255 381.563,208.491 380.969,209.424 C380.375,210.354 379.14,210.629 378.207,210.036 C377.276,209.442 377.001,208.205 377.596,207.274" id="Fill-126" fill="#FFFFFF"></path>
            <path d="M379.942,187.229 C380.626,186.156 382.049,185.842 383.122,186.524 C384.193,187.209 384.51,188.631 383.826,189.703 C383.145,190.775 381.72,191.091 380.647,190.408 C379.575,189.724 379.26,188.302 379.942,187.229" id="Fill-127" fill="#FFFFFF"></path>
            <path d="M382.725,168.846 C383.085,168.28 383.838,168.112 384.403,168.472 C384.971,168.833 385.137,169.586 384.774,170.152 C384.416,170.718 383.664,170.885 383.098,170.523 C382.531,170.163 382.363,169.412 382.725,168.846" id="Fill-128" fill="#FFFFFF"></path>
            <path d="M376.199,219.081 C376.561,218.514 377.313,218.347 377.879,218.708 C378.445,219.069 378.612,219.821 378.252,220.388 C377.891,220.954 377.14,221.12 376.572,220.76 C376.007,220.398 375.84,219.646 376.199,219.081" id="Fill-129" fill="#FFFFFF"></path>
            <path d="M370.719,197.102 C371.078,196.538 371.83,196.37 372.396,196.731 C372.963,197.093 373.13,197.844 372.769,198.411 C372.408,198.976 371.656,199.142 371.089,198.782 C370.524,198.422 370.357,197.669 370.719,197.102" id="Fill-130" fill="#FFFFFF"></path>
            <path d="M349.767,202.589 C350.387,201.615 351.681,201.328 352.653,201.948 C353.628,202.567 353.914,203.86 353.294,204.835 C352.673,205.808 351.381,206.096 350.406,205.475 C349.433,204.854 349.146,203.561 349.767,202.589" id="Fill-131" fill="#FFFFFF"></path>
            <path d="M360.076,211.635 C360.784,210.524 362.258,210.196 363.368,210.905 C364.478,211.612 364.805,213.086 364.098,214.197 C363.39,215.306 361.916,215.634 360.806,214.926 C359.695,214.219 359.369,212.745 360.076,211.635" id="Fill-132" fill="#FFFFFF"></path>
            <path d="M398.814,207.66 C398.873,206.005 400.263,204.71 401.917,204.767 C403.574,204.825 404.868,206.215 404.813,207.871 C404.752,209.526 403.364,210.822 401.708,210.763 C400.053,210.706 398.756,209.316 398.814,207.66" id="Fill-133" fill="#FFFFFF"></path>
            <path d="M422.683,214.6 C422.722,213.497 423.648,212.633 424.752,212.671 C425.855,212.71 426.719,213.637 426.68,214.741 C426.641,215.845 425.715,216.708 424.61,216.671 C423.508,216.631 422.643,215.705 422.683,214.6" id="Fill-134" fill="#FFFFFF"></path>
            <path d="M414.535,196.137 C414.58,194.864 415.646,193.872 416.917,193.916 C418.188,193.962 419.181,195.027 419.137,196.298 C419.094,197.567 418.025,198.562 416.755,198.518 C415.484,198.473 414.49,197.407 414.535,196.137" id="Fill-135" fill="#FFFFFF"></path>
            <path d="M407.605,178.883 C407.628,178.214 408.192,177.686 408.863,177.71 C409.534,177.732 410.06,178.297 410.035,178.969 C410.013,179.639 409.449,180.164 408.777,180.139 C408.107,180.116 407.581,179.555 407.605,178.883" id="Fill-136" fill="#FFFFFF"></path>
            <path d="M427.47,225.483 C427.494,224.811 428.057,224.287 428.728,224.309 C429.399,224.334 429.925,224.897 429.901,225.568 C429.877,226.239 429.314,226.764 428.644,226.74 C427.972,226.717 427.446,226.153 427.47,225.483" id="Fill-137" fill="#FFFFFF"></path>
            <path d="M411.596,209.324 C411.619,208.655 412.183,208.129 412.853,208.154 C413.525,208.179 414.05,208.74 414.026,209.412 C414.002,210.082 413.438,210.607 412.768,210.584 C412.098,210.56 411.571,209.996 411.596,209.324" id="Fill-138" fill="#FFFFFF"></path>
            <path d="M396.324,224.682 C396.364,223.529 397.334,222.625 398.487,222.666 C399.641,222.706 400.544,223.675 400.503,224.829 C400.462,225.982 399.494,226.886 398.34,226.846 C397.186,226.805 396.283,225.835 396.324,224.682" id="Fill-139" fill="#FFFFFF"></path>
            <path d="M409.797,227.247 C409.844,225.931 410.948,224.901 412.264,224.948 C413.579,224.994 414.61,226.098 414.563,227.415 C414.517,228.729 413.412,229.76 412.097,229.713 C410.781,229.667 409.752,228.562 409.797,227.247" id="Fill-140" fill="#FFFFFF"></path>
            <path d="M442.535,199.181 C441.539,197.858 441.805,195.977 443.127,194.981 C444.451,193.983 446.331,194.25 447.329,195.573 C448.325,196.896 448.061,198.777 446.735,199.773 C445.413,200.77 443.531,200.506 442.535,199.181" id="Fill-141" fill="#FFFFFF"></path>
            <path d="M465.455,189.562 C464.791,188.68 464.968,187.425 465.851,186.761 C466.731,186.097 467.986,186.273 468.65,187.157 C469.314,188.039 469.138,189.293 468.256,189.959 C467.373,190.621 466.118,190.445 465.455,189.562" id="Fill-142" fill="#FFFFFF"></path>
            <path d="M447.507,180.334 C446.741,179.317 446.945,177.875 447.961,177.109 C448.978,176.347 450.421,176.549 451.185,177.565 C451.95,178.579 451.745,180.024 450.73,180.79 C449.714,181.554 448.271,181.349 447.507,180.334" id="Fill-143" fill="#FFFFFF"></path>
            <path d="M431.266,171.281 C430.862,170.747 430.97,169.982 431.506,169.578 C432.041,169.174 432.805,169.282 433.208,169.819 C433.612,170.354 433.505,171.117 432.968,171.52 C432.431,171.925 431.669,171.819 431.266,171.281" id="Fill-144" fill="#FFFFFF"></path>
            <path d="M476.022,195.011 C475.618,194.472 475.726,193.711 476.262,193.306 C476.799,192.903 477.562,193.011 477.966,193.547 C478.369,194.084 478.262,194.846 477.726,195.249 C477.188,195.653 476.425,195.546 476.022,195.011" id="Fill-145" fill="#FFFFFF"></path>
            <path d="M453.517,192.434 C453.114,191.9 453.222,191.137 453.758,190.734 C454.295,190.33 455.058,190.437 455.462,190.973 C455.865,191.51 455.757,192.273 455.221,192.677 C454.685,193.08 453.921,192.972 453.517,192.434" id="Fill-146" fill="#FFFFFF"></path>
            <path d="M451.308,213.98 C450.612,213.058 450.798,211.746 451.72,211.052 C452.642,210.357 453.953,210.542 454.647,211.466 C455.341,212.388 455.157,213.699 454.234,214.393 C453.312,215.088 452.001,214.901 451.308,213.98" id="Fill-147" fill="#FFFFFF"></path>
            <path d="M463.395,207.498 C462.603,206.446 462.813,204.951 463.865,204.16 C464.916,203.368 466.411,203.579 467.204,204.631 C467.995,205.682 467.784,207.178 466.732,207.969 C465.68,208.762 464.186,208.55 463.395,207.498" id="Fill-148" fill="#FFFFFF"></path>
            <path d="M472.317,163.257 C470.74,162.75 469.873,161.06 470.379,159.484 C470.885,157.905 472.574,157.039 474.153,157.544 C475.729,158.051 476.599,159.74 476.09,161.318 C475.585,162.895 473.895,163.764 472.317,163.257" id="Fill-149" fill="#FFFFFF"></path>
            <path d="M485.495,142.181 C484.444,141.843 483.864,140.716 484.202,139.665 C484.54,138.613 485.667,138.034 486.719,138.374 C487.771,138.711 488.35,139.838 488.013,140.89 C487.673,141.94 486.546,142.52 485.495,142.181" id="Fill-150" fill="#FFFFFF"></path>
            <path d="M465.511,144.991 C464.299,144.602 463.634,143.306 464.021,142.096 C464.413,140.886 465.708,140.219 466.919,140.608 C468.129,140.995 468.795,142.295 468.406,143.505 C468.017,144.715 466.721,145.38 465.511,144.991" id="Fill-151" fill="#FFFFFF"></path>
            <path d="M447.021,146.961 C446.384,146.757 446.03,146.07 446.235,145.43 C446.439,144.792 447.125,144.439 447.765,144.646 C448.404,144.85 448.756,145.536 448.55,146.175 C448.344,146.814 447.661,147.168 447.021,146.961" id="Fill-152" fill="#FFFFFF"></path>
            <path d="M497.271,140.539 C496.63,140.332 496.278,139.648 496.483,139.009 C496.689,138.369 497.375,138.017 498.015,138.222 C498.653,138.429 499.005,139.112 498.8,139.751 C498.594,140.391 497.908,140.744 497.271,140.539" id="Fill-153" fill="#FFFFFF"></path>
            <path d="M477.398,151.412 C476.762,151.208 476.409,150.521 476.614,149.884 C476.82,149.244 477.506,148.891 478.145,149.097 C478.783,149.302 479.136,149.988 478.93,150.627 C478.726,151.266 478.039,151.618 477.398,151.412" id="Fill-154" fill="#FFFFFF"></path>
            <path d="M488.018,170.289 C486.918,169.935 486.313,168.757 486.666,167.658 C487.019,166.559 488.197,165.955 489.296,166.308 C490.395,166.662 491.001,167.839 490.647,168.938 C490.294,170.038 489.115,170.641 488.018,170.289" id="Fill-155" fill="#FFFFFF"></path>
            <path d="M494.154,158.022 C492.901,157.62 492.211,156.277 492.614,155.024 C493.017,153.771 494.359,153.081 495.613,153.483 C496.866,153.887 497.557,155.229 497.153,156.482 C496.75,157.737 495.407,158.426 494.154,158.022" id="Fill-156" fill="#FFFFFF"></path>
            <path d="M472.681,122.508 C471.077,122.927 469.439,121.966 469.02,120.366 C468.598,118.762 469.559,117.124 471.161,116.701 C472.764,116.282 474.403,117.241 474.822,118.847 C475.244,120.447 474.284,122.089 472.681,122.508" id="Fill-157" fill="#FFFFFF"></path>
            <path d="M472.48,97.652 C471.411,97.929 470.317,97.291 470.038,96.222 C469.759,95.154 470.397,94.06 471.468,93.783 C472.536,93.502 473.628,94.142 473.911,95.211 C474.188,96.279 473.548,97.373 472.48,97.652" id="Fill-158" fill="#FFFFFF"></path>
            <path d="M457.13,110.753 C455.898,111.076 454.643,110.34 454.318,109.109 C453.999,107.879 454.734,106.621 455.965,106.299 C457.193,105.977 458.452,106.715 458.775,107.943 C459.096,109.175 458.359,110.43 457.13,110.753" id="Fill-159" fill="#FFFFFF"></path>
            <path d="M442.591,122.344 C441.943,122.514 441.276,122.124 441.105,121.473 C440.935,120.826 441.325,120.161 441.974,119.992 C442.624,119.82 443.289,120.21 443.457,120.859 C443.628,121.509 443.241,122.175 442.591,122.344" id="Fill-160" fill="#FFFFFF"></path>
            <path d="M481.531,89.943 C480.88,90.112 480.216,89.724 480.046,89.074 C479.876,88.424 480.266,87.759 480.915,87.589 C481.564,87.42 482.229,87.808 482.398,88.457 C482.568,89.107 482.18,89.773 481.531,89.943" id="Fill-161" fill="#FFFFFF"></path>
            <path d="M470.606,109.786 C469.959,109.957 469.293,109.566 469.124,108.918 C468.955,108.267 469.344,107.602 469.992,107.431 C470.642,107.263 471.308,107.652 471.477,108.302 C471.647,108.951 471.258,109.616 470.606,109.786" id="Fill-162" fill="#FFFFFF"></path>
            <path d="M489.701,120.009 C488.584,120.303 487.44,119.631 487.148,118.514 C486.855,117.399 487.525,116.256 488.643,115.965 C489.759,115.673 490.902,116.34 491.194,117.457 C491.487,118.575 490.816,119.717 489.701,120.009" id="Fill-163" fill="#FFFFFF"></path>
            <path d="M488.292,106.365 C487.019,106.699 485.715,105.936 485.382,104.663 C485.049,103.39 485.811,102.087 487.085,101.753 C488.357,101.42 489.661,102.181 489.995,103.456 C490.327,104.73 489.564,106.033 488.292,106.365" id="Fill-164" fill="#FFFFFF"></path>
            <path d="M453.002,89.359 C452.047,90.714 450.176,91.037 448.822,90.086 C447.465,89.132 447.143,87.261 448.094,85.904 C449.048,84.55 450.919,84.224 452.275,85.18 C453.629,86.131 453.955,88.005 453.002,89.359" id="Fill-165" fill="#FFFFFF"></path>
            <path d="M436.809,70.501 C436.171,71.404 434.923,71.621 434.021,70.985 C433.118,70.351 432.9,69.103 433.537,68.199 C434.173,67.295 435.42,67.079 436.326,67.714 C437.228,68.351 437.444,69.6 436.809,70.501" id="Fill-166" fill="#FFFFFF"></path>
            <path d="M433.536,90.416 C432.805,91.457 431.37,91.705 430.328,90.975 C429.29,90.24 429.04,88.806 429.772,87.766 C430.503,86.726 431.94,86.478 432.98,87.207 C434.02,87.941 434.268,89.376 433.536,90.416" id="Fill-167" fill="#FFFFFF"></path>
            <path d="M429.91,108.652 C429.524,109.199 428.764,109.332 428.214,108.945 C427.665,108.561 427.534,107.802 427.921,107.254 C428.306,106.703 429.066,106.571 429.613,106.959 C430.163,107.345 430.298,108.103 429.91,108.652" id="Fill-168" fill="#FFFFFF"></path>
            <path d="M438.748,58.772 C438.359,59.321 437.602,59.454 437.053,59.067 C436.504,58.68 436.372,57.92 436.758,57.371 C437.144,56.823 437.902,56.691 438.451,57.077 C439.001,57.464 439.135,58.222 438.748,58.772" id="Fill-169" fill="#FFFFFF"></path>
            <path d="M443.207,80.98 C442.823,81.528 442.063,81.659 441.515,81.273 C440.966,80.886 440.834,80.126 441.22,79.578 C441.605,79.029 442.366,78.897 442.914,79.285 C443.464,79.669 443.596,80.43 443.207,80.98" id="Fill-170" fill="#FFFFFF"></path>
            <path d="M464.391,76.467 C463.728,77.411 462.42,77.637 461.477,76.972 C460.533,76.311 460.307,75.004 460.973,74.061 C461.637,73.117 462.94,72.889 463.885,73.555 C464.83,74.219 465.055,75.524 464.391,76.467" id="Fill-171" fill="#FFFFFF"></path>
            <path d="M454.51,66.954 C453.752,68.03 452.265,68.29 451.188,67.532 C450.113,66.774 449.854,65.287 450.611,64.21 C451.369,63.134 452.856,62.875 453.934,63.632 C455.01,64.391 455.268,65.879 454.51,66.954" id="Fill-172" fill="#FFFFFF"></path>
            <path d="M343.98,149.335 C345.562,148.84 347.244,149.719 347.741,151.299 C348.237,152.88 347.358,154.563 345.777,155.061 C344.196,155.555 342.513,154.678 342.019,153.097 C341.521,151.515 342.399,149.831 343.98,149.335" id="Fill-173" fill="#FFFFFF"></path>
            <path d="M345.377,174.152 C346.433,173.821 347.555,174.408 347.887,175.462 C348.217,176.515 347.63,177.638 346.575,177.97 C345.521,178.298 344.399,177.714 344.068,176.66 C343.737,175.605 344.323,174.482 345.377,174.152" id="Fill-174" fill="#FFFFFF"></path>
            <path d="M360.078,160.325 C361.293,159.944 362.584,160.619 362.966,161.833 C363.346,163.046 362.672,164.338 361.459,164.719 C360.246,165.099 358.953,164.425 358.571,163.211 C358.191,161.998 358.866,160.707 360.078,160.325" id="Fill-175" fill="#FFFFFF"></path>
            <path d="M374.043,148.049 C374.683,147.848 375.367,148.205 375.568,148.845 C375.77,149.485 375.412,150.168 374.771,150.369 C374.132,150.569 373.449,150.214 373.248,149.573 C373.047,148.932 373.402,148.25 374.043,148.049" id="Fill-176" fill="#FFFFFF"></path>
            <path d="M336.709,182.288 C337.35,182.088 338.033,182.443 338.234,183.084 C338.436,183.726 338.079,184.408 337.438,184.609 C336.797,184.81 336.115,184.454 335.914,183.813 C335.713,183.172 336.069,182.489 336.709,182.288" id="Fill-177" fill="#FFFFFF"></path>
            <path d="M346.664,161.941 C347.303,161.741 347.987,162.097 348.187,162.737 C348.388,163.38 348.032,164.061 347.391,164.263 C346.751,164.463 346.068,164.106 345.867,163.466 C345.666,162.826 346.023,162.142 346.664,161.941" id="Fill-178" fill="#FFFFFF"></path>
            <path d="M327.1,152.65 C328.201,152.305 329.376,152.919 329.722,154.019 C330.067,155.121 329.454,156.296 328.353,156.64 C327.25,156.985 326.077,156.374 325.73,155.271 C325.385,154.169 325.999,152.996 327.1,152.65" id="Fill-179" fill="#FFFFFF"></path>
            <path d="M329.165,166.21 C330.421,165.816 331.759,166.514 332.153,167.771 C332.547,169.026 331.849,170.365 330.592,170.761 C329.337,171.154 327.998,170.455 327.604,169.199 C327.21,167.942 327.909,166.604 329.165,166.21" id="Fill-180" fill="#FFFFFF"></path>
            <path d="M347.272,109.549 C348.876,109.967 349.838,111.603 349.422,113.207 C349.006,114.81 347.367,115.773 345.763,115.357 C344.161,114.938 343.197,113.303 343.616,111.699 C344.031,110.095 345.669,109.132 347.272,109.549" id="Fill-181" fill="#FFFFFF"></path>
            <path d="M335.31,131.337 C336.379,131.615 337.021,132.707 336.743,133.776 C336.465,134.845 335.373,135.486 334.303,135.21 C333.234,134.93 332.593,133.84 332.87,132.769 C333.148,131.7 334.241,131.058 335.31,131.337" id="Fill-182" fill="#FFFFFF"></path>
            <path d="M355.103,127.398 C356.335,127.719 357.073,128.975 356.753,130.207 C356.432,131.436 355.176,132.176 353.946,131.855 C352.715,131.536 351.977,130.279 352.296,129.048 C352.616,127.817 353.873,127.08 355.103,127.398" id="Fill-183" fill="#FFFFFF"></path>
            <path d="M373.451,124.386 C374.099,124.555 374.492,125.22 374.322,125.868 C374.154,126.518 373.488,126.906 372.839,126.738 C372.19,126.57 371.801,125.906 371.969,125.258 C372.138,124.607 372.801,124.216 373.451,124.386" id="Fill-184" fill="#FFFFFF"></path>
            <path d="M323.646,133.643 C324.296,133.813 324.688,134.476 324.519,135.127 C324.35,135.778 323.686,136.168 323.035,135.998 C322.385,135.83 321.995,135.167 322.164,134.516 C322.334,133.866 322.997,133.475 323.646,133.643" id="Fill-185" fill="#FFFFFF"></path>
            <path d="M342.869,121.662 C343.518,121.83 343.909,122.495 343.739,123.143 C343.57,123.795 342.906,124.184 342.257,124.016 C341.607,123.847 341.218,123.183 341.386,122.532 C341.555,121.884 342.22,121.493 342.869,121.662" id="Fill-186" fill="#FFFFFF"></path>
            <path d="M331.199,103.417 C332.316,103.707 332.987,104.851 332.697,105.968 C332.408,107.084 331.265,107.756 330.147,107.465 C329.03,107.173 328.359,106.033 328.649,104.914 C328.94,103.797 330.083,103.127 331.199,103.417" id="Fill-187" fill="#FFFFFF"></path>
            <path d="M325.768,116.011 C327.04,116.343 327.806,117.643 327.475,118.919 C327.144,120.191 325.842,120.957 324.566,120.627 C323.293,120.296 322.528,118.993 322.86,117.719 C323.191,116.444 324.493,115.68 325.768,116.011" id="Fill-188" fill="#FFFFFF"></path>
            <g id="Whole-Foods" transform="translate(352.562665, 76.631372) rotate(1.000000) translate(-352.562665, -76.631372) " stroke="#FFFFFF" stroke-width="2">
                <use fill="#573517" fill-opacity="0.903306159" stroke-opacity="1" filter="url(#filter-12)" xlink:href="#text-11"></use>
                <use fill="#573517" fill-opacity="0.903306159" stroke-opacity="1" filter="url(#filter-13)" xlink:href="#text-11"></use>
                <use fill="#573517" fill-opacity="0.903306159" stroke-opacity="1" filter="url(#filter-14)" xlink:href="#text-11"></use>
                <use xlink:href="#text-11"></use>
            </g>
            <g id="for-my-soul" stroke="#FFFFFF" stroke-width="2">
                <use fill="#573517" fill-opacity="0.903306159" stroke-opacity="1" filter="url(#filter-16)" xlink:href="#text-15"></use>
                <use fill="#573517" fill-opacity="0.903306159" stroke-opacity="1" filter="url(#filter-17)" xlink:href="#text-15"></use>
                <use fill="#573517" fill-opacity="0.903306159" stroke-opacity="1" filter="url(#filter-18)" xlink:href="#text-15"></use>
                <use xlink:href="#text-15"></use>
            </g>
        </g>
    </g>
</svg>